<svg height="512" viewBox="0 0 512 512" width="512" xmlns="http://www.w3.org/2000/svg"><g><path fill="#fff" d="m481.493 31.875c-20.146-20.448-47.044-31.768-75.737-31.875-.137.0-.273.0-.41.0-28.543.0-55.363 11.106-75.558 31.301l-81.974 81.974c-9.381 9.381-9.381 24.646.0 34.028l46.842 46.842c4.398 4.398 10.199 6.884 16.395 7.04.154 5.949 2.497 11.851 7.026 16.381l18.118 18.118-159.4 159.4c-4.182-13.637-11.64-26.477-22.409-37.247-15.491-15.491-36.048-24.815-57.885-26.254-16.838-1.108-33.538 2.503-48.237 10.285v-234.92c0-13.267-10.794-24.061-24.061-24.061-13.268.0-24.061 10.794-24.061 24.063l.081 314.744c0 24.122 9.394 46.8 26.449 63.856 17.058 17.056 39.737 26.45 63.858 26.45 24.122.0 46.801-9.394 63.857-26.45l216.681-216.682c3.328 1.688 7.027 2.588 10.867 2.588 6.427.0 12.47-2.503 17.014-7.047l81.093-81.092c41.845-41.846 42.497-109.783 1.451-151.442zm-444.212 443.068c-14.224-14.223-22.057-33.134-22.057-53.251l-.081-314.744c0-4.996 4.065-9.061 9.061-9.061s9.061 4.065 9.061 9.061v314.745c0 .495.051.978.142 1.446.355 14.158 5.906 28.208 16.687 38.989 10.802 10.801 25.161 16.749 40.435 16.749s29.635-5.948 40.436-16.749c10.801-10.8 16.749-25.161 16.749-40.435s-5.948-29.635-16.749-40.435c-22.297-22.296-58.574-22.296-80.871.0-.629.629-1.235 1.273-1.829 1.924v-23.835c29.549-20.068 69.99-16.429 95.515 9.096 29.362 29.362 29.362 77.138.0 106.5C129.557 489.167 110.646 497 90.53 497c-20.115.0-39.026-7.833-53.249-22.057zm23.42-83.078c8.226-8.225 19.025-12.335 29.829-12.335 10.802.0 21.607 4.112 29.828 12.335 7.968 7.968 12.357 18.561 12.357 29.829s-4.389 21.861-12.357 29.829c-7.967 7.967-18.561 12.355-29.828 12.355s-21.861-4.388-29.828-12.355c-16.447-16.449-16.447-43.21-.001-59.658zm119.647 20.881 166.455-166.455 12.815 12.815-180.649 180.648c1.802-8.893 2.268-18.003 1.379-27.008zm289.086-240.036-81.093 81.093c-1.711 1.711-3.986 2.653-6.406 2.653-2.421.0-4.696-.942-6.407-2.654l-46.843-46.842c-3.533-3.533-3.533-9.283.0-12.816l5.854-5.854c2.93-2.929 2.93-7.678.001-10.607-2.929-2.928-7.678-2.929-10.607.0l-5.855 5.855v.001h-.001c-1.711 1.711-3.986 2.654-6.406 2.654-2.421.0-4.696-.943-6.407-2.654l-46.842-46.842c-3.533-3.533-3.533-9.282.0-12.815l81.974-81.974c17.361-17.362 40.413-26.908 64.952-26.908h.352c24.665.092 47.788 9.823 65.108 27.402 35.284 35.811 34.668 94.267-1.374 130.308z"/><path fill="#fff" d="m457.503 54.722c-28.754-28.753-75.539-28.753-104.293.0-2.929 2.929-2.929 7.678.0 10.606 2.93 2.929 7.678 2.93 10.607.0 22.904-22.905 60.176-22.903 83.078.0 22.905 22.905 22.905 60.173.0 83.078-2.929 2.929-2.929 7.678.0 10.607 1.465 1.464 3.385 2.197 5.304 2.197s3.839-.733 5.304-2.197c28.753-28.753 28.753-75.538.0-104.291z"/><path fill="#fff" d="m409.334 106.067h-.001c-1.037-.073-2.074-.095-3.106-.07.025-1.034.003-2.071-.07-3.107-1.128-16.089-14.121-28.971-30.223-29.964-9.024-.553-17.618 2.537-24.188 8.712-6.477 6.09-10.191 14.68-10.191 23.567v49.684c0 8.702 7.079 15.781 15.78 15.781h49.684c8.888.0 17.478-3.715 23.567-10.192 6.175-6.568 9.27-15.158 8.712-24.188-.994-16.1-13.876-29.093-29.964-30.223zm10.323 44.137c-3.314 3.525-7.803 5.466-12.639 5.466h-49.684c-.431.0-.78-.35-.78-.781v-49.684c0-4.836 1.941-9.324 5.467-12.638 3.25-3.056 7.43-4.704 11.872-4.704.37.0.743.012 1.116.035 8.48.523 15.589 7.569 16.184 16.042.215 3.066-.336 6.003-1.639 8.728-1.371 2.868-.785 6.289 1.463 8.537 2.247 2.249 5.669 2.834 8.537 1.464 2.726-1.303 5.666-1.857 8.729-1.64 8.473.595 15.52 7.704 16.044 16.184.299 4.856-1.359 9.469-4.67 12.991z"/></g></svg>